<?xml version="1.0" encoding="utf-8"?>
<!-- Generator: Adobe Illustrator 16.0.0, SVG Export Plug-In . SVG Version: 6.00 Build 0)  -->
<!DOCTYPE svg PUBLIC "-//W3C//DTD SVG 1.1//EN" "http://www.w3.org/Graphics/SVG/1.1/DTD/svg11.dtd">
<svg version="1.1"
	 id="adidas" xmlns:inkscape="http://www.inkscape.org/namespaces/inkscape" xmlns:svg="http://www.w3.org/2000/svg" xmlns:sodipodi="http://sodipodi.sourceforge.net/DTD/sodipodi-0.dtd" xmlns:dc="http://purl.org/dc/elements/1.1/" xmlns:rdf="http://www.w3.org/1999/02/22-rdf-syntax-ns#" xmlns:cc="http://web.resource.org/cc/" sodipodi:version="0.32" sodipodi:docname="adidas_klassisches_logo.svg" sodipodi:docbase="C:\Dokumente und Einstellungen\Andreas\Eigene Dateien\Eigene Bilder\sonstiges\Logos\Vektor\Sports" inkscape:version="0.44"
	 xmlns="http://www.w3.org/2000/svg" xmlns:xlink="http://www.w3.org/1999/xlink" x="0px" y="0px" width="585.793px"
	 height="569.617px" viewBox="0 0 585.793 569.617" enable-background="new 0 0 585.793 569.617" xml:space="preserve">
<g>
	<g>
		<path fill="#1D1D1B" d="M560.242,346.214c-0.994,0.995-2.186,1.526-3.578,1.545c-1.468,0.02-2.712-0.455-3.727-1.427
			c-0.998-0.97-1.521-2.19-1.574-3.631c-0.034-1.519,0.494-2.778,1.529-3.793c1.001-0.979,2.17-1.456,3.541-1.506
			c1.42-0.03,2.657,0.432,3.672,1.428c1.034,1.011,1.568,2.215,1.597,3.645C561.743,343.932,561.255,345.198,560.242,346.214z
			 M553.454,339.684c-0.811,0.848-1.197,1.847-1.172,3.008c0.026,1.18,0.475,2.188,1.329,3.019c0.854,0.792,1.855,1.199,3.037,1.159
			c1.157-0.01,2.164-0.468,2.979-1.322c0.804-0.848,1.191-1.873,1.166-3.042c-0.019-1.161-0.458-2.14-1.303-2.951
			c-0.874-0.849-1.872-1.244-3.03-1.222C555.275,338.358,554.274,338.803,553.454,339.684z M554.323,345.507l-0.129-5.718
			c0.353-0.026,0.888-0.021,1.605-0.032c0.698-0.01,1.099-0.022,1.165-0.022c0.477,0.022,0.843,0.106,1.144,0.283
			c0.517,0.259,0.773,0.71,0.787,1.333c0.013,0.483-0.113,0.83-0.369,1.036c-0.263,0.229-0.581,0.354-0.975,0.402
			c0.36,0.059,0.63,0.184,0.821,0.327c0.35,0.269,0.545,0.7,0.545,1.281l0.029,0.501c-0.016,0.062,0.006,0.108-0.012,0.185
			c0,0.038,0.025,0.106,0.025,0.146l0.053,0.188l-1.413,0.003c-0.049-0.153-0.1-0.428-0.118-0.775
			c-0.014-0.344-0.06-0.566-0.111-0.699c-0.086-0.203-0.23-0.345-0.438-0.419c-0.113-0.033-0.278-0.071-0.524-0.078l-0.314,0.007
			l-0.339-0.007l0.045,2.034L554.323,345.507z M556.956,340.833c-0.211-0.085-0.513-0.115-0.891-0.105l-0.372,0.008l0.036,1.679
			l0.596-0.018c0.356,0.003,0.63-0.072,0.823-0.201c0.193-0.178,0.296-0.409,0.286-0.728
			C557.436,341.153,557.271,340.934,556.956,340.833z"/>
	</g>
	<g>
		<path fill="#1D1D1B" d="M257.794,345.646c-2.088-3.05-5.214-6.857-9.076-11.823c-2.396-3.075-5.419-2.731-4.715,0.997
			c0.272,1.473,2.508,12.461,2.675,14.109c0.242,2.428,2.169,3.727,3.952,3.341c1.247-0.267,5.744-1.448,7.047-1.758
			C259.462,350.083,259.759,348.524,257.794,345.646z"/>
		<path fill="#1D1D1B" d="M584.479,276.653c-2.515-11.8-15.393-17.695-34.484-19.907c-79.484-9.143-144.831-6.966-211.805,0.554
			c-67.001,7.51-103.359,14.227-154.479,31.27c-34.61,11.531-70.661,31.227-87.77,39.122c-19.554,9.019-24.071,12.535-55.11,23.129
			c-10.388,3.561-26.79,6.993-34.53,8.593c-7.725,1.616-6.175,5.92-6.175,11.289c0,5.384,0.673,5.854,2.071,8.627
			c8.735,17.717,15.442,31.695,33.995,51.583c3.059,3.291,7.738,3.76,12.893,3.24c5.167-0.534,16.485-1.633,30.39-1.633
			c13.925,0,35.05,2.712,43.809,2.712c5.975,0,7.453,1.197,2.402,5.395c-9.805,8.046-11.728,23.004-6.833,33.871
			c3.634,8.108,5.46,12.337,10.107,19.854c4.184,6.801,11.879,9.866,26.712,7.897c16.138-2.127,26.451-7.278,38.635-15.643
			c10.33-7.11,14.333-18.851,9.367-30.414c-2.81-6.584-8.245-13.935-10.979-17.703c-1.641-2.326-3.593-4.496,4.124-5.214
			c97.425-9.103,130.957-20.193,164.592-28.113c34.045-8.007,48.452-11.824,107.147-33.379c9.788-3.566,5.147,2.16,3.611,9.161
			c-1.546,6.976-1.545,11.214,3.246,18.598c4.386,6.818,6.423,9.974,14.066,19.546c7.221,9.06,20.349,11.858,34.251,7.035
			c15.796-5.478,24.897-14.714,31.404-24.218c7.722-11.297,5.828-26.361-1.91-38.688c-7.723-12.387-11.792-15.148-18.658-17.184
			c-4.829-1.423-4.052-2.638-1.088-3.794c14.229-5.688,22.727-14.379,36.604-27.426
			C581.465,304.111,587.258,289.521,584.479,276.653z M36.352,423.784c-1.816-1.893-11.358-15.158-17.023-23.935
			c-5.691-8.776-9.781-16.597-12.052-20.851c-1.53-2.889-2.947-5.015-2.947-7.595c0-2.603,0-4.272,0.226-5.218
			c0.228-0.963,1.141-1.656,2.942,1.424c1.819,3.074,8.871,16.104,16.589,26.999c7.732,10.91,11.371,16.129,12.729,17.544
			c1.363,1.439,2.042,2.87,2.266,5.218c0.171,1.642,0.233,2.609,0.233,4.296C39.313,423.332,38.178,425.685,36.352,423.784z
			 M449.029,262.433c1.794,0.645,5.562,1.508,6.087,4.723c0.309,1.892,0.529,5.729,0.886,7.72c0.557,2.772-0.122,3.602-1.103,4.315
			c-1.009,0.702-5.062-0.36-5.601-2.346c-0.551-1.969-1.076-5.846-2.015-9.503C446.813,265.563,447.239,261.83,449.029,262.433z
			 M434.629,260.439c2.386,0.828,5.431,1.215,6.177,5.509c0.398,2.53,1.151,4.983,1.541,7.738c0.448,3.167,0.155,4.146-1.181,5.093
			c-1.316,0.878-4.616-0.101-5.388-2.764c-0.73-2.637-1.17-5.04-1.731-9.069C433.704,264.51,432.252,259.626,434.629,260.439z
			 M423.343,288.166c0.763,1.349,3.717,4.866,4.425,6.826c0.4,1.105-0.636,2.854-3.947,2.755c-1.567-0.059-6.917,0.46-14.412,1.123
			c-1.206,0.107-1.951,1.916-1.185,3.188c12.298,16.18,22.978,30.742,27.262,37.584c1.862,2.932,2.569,5.131-0.935,6.572
			c-1.799,0.738-7.069,2.697-9.017,2.723c-1.925,0.033-3.779,0.452-5.713-2.888c-10.027-17.345-18.942-31.21-27.205-42.809
			c-1.027-1.449-2.488-2.445-4.682-2.146c-4.828,0.487-12.096,1.258-13.266,1.384c-1.824,0.185-3.11,0.008-5.189-2.822
			c-1.604-2.2-2.887-3.91-3.585-5.93c-0.573-1.684,0.783-2.596,3.425-2.963c20.571-2.873,44.165-4.604,47.31-4.814
			C419.781,285.73,422.022,285.812,423.343,288.166z M253.505,371.379c0.309,2.32,4.002,13.617,4.566,15.937
			c0.569,2.302,0.604,4.12-1.239,4.404c-1.846,0.285-9.152,1.518-11.798,1.558c-2.651,0.043-3.473-1.232-3.778-3.289
			c-0.297-2.054-4.099-30.76-12.389-70.058c-0.707-3.376-0.59-5.118,2.642-6.073c0,0,7.445-1.675,9.573-2.151
			c3.684-0.829,4.768,1.223,6.126,2.746c17.844,19.898,52.731,62.746,54.17,64.472c2.391,2.872,1.616,4.907-0.758,5.2
			c-2.377,0.301-7.984,1.592-10.618,1.901c-2.646,0.293-3.972-0.201-5.324-1.993c-1.345-1.776-9.946-14.104-13.006-17.075
			c-1.608-1.575-2.693-3.048-4.811-3.023c-2.115,0.034-7.114,1.406-10.534,2.244C252.898,366.992,253.195,369.06,253.505,371.379z
			 M267.274,311.706c-1.971-2.388-0.33-4.615,2.31-5.175c0,0,5.183-0.879,8.293-1.568c1.633-0.366,3.989,0.905,4.999,2.328
			c1.127,1.599,12.361,13.574,36.881,51.308c2.725,4.194,8.41,5.93,12.053,5.175c5.882-1.23,5.616-4.755,3.345-8.876
			c-2.917-5.293-22.168-33.855-35.409-50.161c-2.012-2.461-1.198-4.295,1.699-4.857c1.578-0.3,6.243-1.029,8.094-1.338
			c2.743-0.445,4.644,0.427,5.539,1.666c18.165,25.256,34.344,49.071,38.51,56.851c3.826,7.159,2.009,14.865-4.131,16.975
			c-4.885,1.676-16.973,4.582-22.246,5.411c-8.202,1.297-14.938-2.179-18.481-7.78C291.689,344.641,270.093,315.122,267.274,311.706
			z M330.995,299.497c-1.407-2.02-1.386-4.095,1.719-4.572c3.079-0.453,6.455-1.049,8.504-1.082c2.06-0.032,3.177,1.465,5.164,4.08
			c10.277,13.515,19.646,27.012,31.544,46.542c1.187,1.943,1.978,4.463,5.619,3.549c5.771-1.432,10.545-2.872,15.587-4.354
			c1.781-0.518,3.27-1.087,4.766,1.834c1.5,2.888,3.587,5.494,4.002,6.541c0.427,1.03,0.66,2.486-1.183,3.381
			c-1.846,0.854-24.248,7.864-30.233,9.498c-2.468,0.652-4.804,0.595-7.053-3.694C355.841,335.328,340.603,313.173,330.995,299.497z
			 M145.428,320.271c0,0,6.055-3.165,9.207-4.505c3.148-1.339,3.885-0.519,5.838,1.457c10.77,10.946,43.741,55.923,46.182,58.795
			c1.688,1.985,3.868,1.005,3.283-1.391c-0.95-3.853-9.761-46.375-16.515-70.124c-0.514-1.8-0.012-3.483,2.567-4.429
			c3.398-1.249,47.343-13.633,116.292-24.428c40.849-6.405,92.173-11.062,94.22-11.112c6.163-0.159,5.346,1.072,6.54,2.898
			c1.02,1.548,2.438,4.095,3.575,6.206c1.322,2.486,1.553,3.834-4.642,4.455c-20.648,2.061-52.268,4.537-84.52,9.529
			c-79.961,12.369-107.299,20.899-110.679,21.688c-4.316,1.003-4.421,2.235-3.812,4.612c7.745,30.315,13.674,73.869,14.255,76.698
			c0.578,2.823-1.004,4.814-2.792,5.283c-3.826,0.966-16.267,2.111-18.117,2.138c-1.848,0.034-3.782,0.118-5.874-2.998
			c-23.842-35.33-52.925-68.148-54.903-70.361C143.149,322.021,145.428,320.271,145.428,320.271z M127.153,327.724
			c0.382-1.07,2.457-1.951,4.041,0.395c1.628,2.395,5.321,6.826,6.41,8.158c1.08,1.287,0.008,5.156-1.071,6.445
			c-1.671,2.051-3.046,0.302-4.409-1.548c-1.331-1.834-4.259-5.535-5.87-7.62C125.121,332.039,126.441,329.87,127.153,327.724z
			 M116.38,334.642c0.476-1.289,2.391-3.675,4.341-0.829c1.951,2.863,6.934,9.473,8.187,11.055c1.293,1.564,0.042,4.813-0.896,5.787
			c-0.922,0.962-2.312,1.951-3.899-0.276c-1.619-2.204-5.149-6.615-7.075-9.153C115.641,339.398,115.513,337.171,116.38,334.642z
			 M167.649,481.741c-9.817,3.51-18.683,3.583-19.816,0.165c-1.14-3.431,5.887-9.092,15.701-12.616
			c9.797-3.51,18.678-3.602,19.825-0.16C184.495,472.563,177.454,478.173,167.649,481.741z M185.906,448.905
			c-16.837,0.486-25.479,0.486-34.556,5.478c-9.082,4.974-17.017,11.924-20.211,17.266c-1.147,1.909-1.881,4.541-3.878,1.909
			c-0.921-1.198-1.13-1.423-2.278-3.08c-2.667-3.903-4.078-10.426,0-17.05c4.101-6.64,13.039-13.97,22.271-16.832
			c8.6-2.697,17.439-0.244,32.505-1.197c1.372-0.083,2.512,1.414,3.409,2.854c0.903,1.401,3.412,4.975,4.099,6.399
			C187.94,446.066,190.481,448.78,185.906,448.905z M527.158,404.054c-8.183,4.338-16.319,4.84-18.181,1.089
			c-1.86-3.769,3.282-10.333,11.438-14.672c8.19-4.346,16.34-4.823,18.207-1.063C540.497,393.135,535.348,399.717,527.158,404.054z
			 M534.25,355.252c3.889,0.274,4.666,0.803,5.954,2.429c1.282,1.614,2.562,3.248,3.209,4.168c1.189,1.626,1.826,3.293-3.604,3.5
			c-10.986,0.411-20.313,3.609-30.331,8.493c-9.42,4.563-17.409,11.731-20.909,21.009c-0.676,1.743-1.908,4.689-4.129,2.013
			c-2.195-2.689-3.75-4.315-4.905-6.977c-1.07-2.438-1.023-4.447,0.115-7.445c2.983-7.527,8.524-12.911,14.857-17.5
			C503.075,358.752,516.615,354.038,534.25,355.252z M578.281,293.852c-18.582,24.872-52.553,45.21-73.187,54.266
			c-44.208,19.426-90.015,35.587-155.221,52.312c-55.522,14.229-89.944,20.374-148.415,25.215
			c-28.832,2.387-49.787,2.43-78.624,1.465c-28.877-0.965-68.868-0.484-73.528-0.484c-4.656,0-3.73-0.48-4.179-2.906
			c-0.478-2.438-1.403-5.812,3.723-5.812c16.739,0,47.63-0.736,71.807-1.322c41.25-0.972,87.144-3.878,137.565-10.343
			c64.945-8.332,156.489-33.975,206.463-52.725c57.901-21.737,96.304-41.618,111.288-67.065c2.626-5.495,3.631-2.054,3.867-1.082
			C580.303,287.311,581.131,290.068,578.281,293.852z"/>
	</g>
</g>
<g>
	<path fill="#1D1D1B" d="M195.647,79.77c0,0-67.453,100.853-72.576,108.466c-2.425-11.687-23.096-111.53-23.096-111.53L85.1,76.801
		l26.213,126.403l18.607,0.019c0,0,71.311-106.595,75.288-112.541c7.357,0.076,290.818,0.429,290.818,0.429l4.646-14.009
		L197.78,76.608L195.647,79.77z"/>
	<path fill="#1D1D1B" d="M429.522,109.584l-4.913-0.009l-11.281,52.392c0,0,50.169,0.076,61.719,0.094
		c-1.892,9.003-5.767,27.101-7.125,33.413c-8.464-0.022-60.628-0.093-60.628-0.093l-2.264,12.181l72.735,0.104l12.3-57.771
		c0,0-50.131-0.073-61.696-0.083c1.783-8.362,4.779-22.189,6.029-28.079c8.332,0.01,53.62,0.078,53.62,0.078l3.604-12.138
		L429.522,109.584z"/>
	<path fill="#1D1D1B" d="M310.513,107.751h-4.723l-24.636,97.358l12.614,0.146c0,0,16.122-63.99,20.102-79.878
		c6.617,14.447,37.023,81.006,37.023,81.006l12.349,0.025l25.168-97.024l-12.558-0.172c0,0-15.787,60.962-20.238,78.261
		c-7.348-15.983-36.415-79.704-36.415-79.704l-3.903-0.01L310.513,107.751z"/>
	<path fill="#1D1D1B" d="M245.555,205.28l12.651,0.03l-21.784-100.308l-4.91-0.012l-7.265-0.005l-57.366,99.003l14.113,0.019
		c0,0,4.525-7.849,10.832-18.766l49.407,0.076C243.742,196.863,245.555,205.28,245.555,205.28z M198.844,173.051
		c11.243-19.396,24.415-42.19,28.94-50.03c1.887,8.835,6.713,31.012,10.811,50.087L198.844,173.051z"/>
	<path fill="#1D1D1B" d="M490.508,196.446c0.008-5.243,3.878-9.044,8.776-9.039c4.835,0,8.758,3.821,8.752,9.069
		c-0.015,5.251-3.94,9.063-8.774,9.063C494.368,205.53,490.502,201.7,490.508,196.446z M499.252,207.723
		c6.087,0.007,11.506-4.505,11.513-11.246c0.006-6.715-5.396-11.256-11.48-11.268c-6.09-0.01-11.499,4.526-11.508,11.238
		C487.766,203.19,493.16,207.712,499.252,207.723z M497.073,197.168l1.833,0.006l3.203,5.465h2.443l-3.479-5.59
		c1.975-0.16,3.397-1.103,3.406-3.403c0-2.652-1.706-3.735-4.795-3.735l-4.802-0.01l-0.016,12.726h2.201L497.073,197.168z
		 M497.073,195.333l0.007-3.619l2.394,0.007c1.211,0,2.652,0.236,2.652,1.745c-0.008,1.7-1.205,1.879-2.724,1.879L497.073,195.333z"
		/>
</g>
</svg>
